<svg class="wslogo" id="Layer_1" data-name="Layer 1" xmlns="http://www.w3.org/2000/svg" viewBox="0 0 751.18 133.75" fill="#fff">
    <path d="M936.32 335A15.95 15.95 0 10952 350.91 15.85 15.85 0 00936.32 335z" transform="translate(-200.86 -256.87)" fill="#ff7133"></path>
    <path class="cls-2" d="M816.7 281.24c-24.52 0-44.29 19-44.29 42.51s19.77 42.5 44.29 42.5 44.29-19 44.29-42.5-19.77-42.51-44.29-42.51zm0 66.75a24.24 24.24 0 1123.94-24.24A24.12 24.12 0 01816.7 348z" transform="translate(-200.86 -256.87)"></path>
    <path class="cls-2" d="M25.86.4L48.6 70.84 74.75.4h20.22l26.15 70.44L143.86.4h25.86l-38.34 107h-20.51L84.86 36.07 58.85 107.4H38.34L0 .4h25.86z"></path>
    <path class="cls-2" d="M407.43 366.25c-24.52 0-44.29-19-44.29-42.5s19.77-42.51 44.29-42.51 44.29 19 44.29 42.51-19.72 42.5-44.29 42.5zm0-64.79a22.29 22.29 0 1022 22.29 22.1 22.1 0 00-22-22.29zM503 281.24h3v20.22a22.26 22.26 0 00-22.3 22.29v40.12h-22.33v-40.12c0-23.48 16.94-42.51 41.63-42.51z" transform="translate(-200.86 -256.87)"></path>
    <path class="cls-2" d="M314.75 107V0h22.3v57.52l25.86-30.77h26.75l-29.58 34.18L396.64 107h-27.05l-32.54-42.35V107h-22.3z"></path>
    <path class="cls-2" d="M667.05 338.91c0 17.24-15.46 27.34-32.7 27.34s-32.69-10.1-32.69-27.34H624c0 6.83 5.5 8.62 10.4 8.62s10.41-2.53 10.41-7.73c0-3.72-4.91-7.13-11.6-8-15.6-1.93-30.61-11.44-30.61-24.07 0-16.35 14.56-26.46 31.8-26.46s31.81 10.11 31.81 27.35h-22.3c0-6.84-4.6-8.62-9.51-8.62s-9.51 1.78-9.51 7.13c0 4.76 9.81 8.47 18.43 9.51 11.68 1.36 23.73 8.74 23.73 22.27zM766.47 323.75c0 23.48-19.77 42.5-44.14 42.5a31.33 31.33 0 01-21.85-8.91v33.29h-22.29v-66.88c0-23.48 19.77-42.51 44.14-42.51s44.14 19.03 44.14 42.51zm-22.29 0a22.3 22.3 0 10-22.3 22.25 22.26 22.26 0 0022.3-22.25zM908.65 350.91a28.09 28.09 0 01.61-5.77 22.27 22.27 0 01-16-21.39v-21.11h22.29v-19h-22.32v-26.77h-22.29v66.88c0 23.48 16.94 42.5 41.61 42.5h.68a27.93 27.93 0 01-4.58-15.34z" transform="translate(-200.86 -256.87)"></path>
  </svg>